<?xml version="1.0" encoding="UTF-8" standalone="no"?>
<!-- Created with Inkscape (http://www.inkscape.org/) -->

<svg
   width="210mm"
   height="297mm"
   viewBox="0 0 210 297"
   version="1.1"
   id="svg1"
   inkscape:version="1.4.2 (f4327f4, 2025-05-13)"
   sodipodi:docname="logo.svg"
   xmlns:inkscape="http://www.inkscape.org/namespaces/inkscape"
   xmlns:sodipodi="http://sodipodi.sourceforge.net/DTD/sodipodi-0.dtd"
   xmlns="http://www.w3.org/2000/svg"
   xmlns:svg="http://www.w3.org/2000/svg">
  <sodipodi:namedview
     id="namedview1"
     pagecolor="#ffffff"
     bordercolor="#000000"
     borderopacity="0.25"
     inkscape:showpageshadow="2"
     inkscape:pageopacity="0.0"
     inkscape:pagecheckerboard="0"
     inkscape:deskcolor="#d1d1d1"
     inkscape:document-units="mm"
     inkscape:zoom="0.71268238"
     inkscape:cx="396.38976"
     inkscape:cy="561.25984"
     inkscape:window-width="1920"
     inkscape:window-height="1002"
     inkscape:window-x="-8"
     inkscape:window-y="-8"
     inkscape:window-maximized="1"
     inkscape:current-layer="layer1" />
  <defs
     id="defs1">
    <rect
       x="103.83307"
       y="245.55118"
       width="440.58898"
       height="140.31496"
       id="rect1" />
  </defs>
  <g
     inkscape:label="Layer 1"
     inkscape:groupmode="layer"
     id="layer1">
    <text
       xml:space="preserve"
       transform="scale(0.26458333)"
       id="text1"
       style="font-style:normal;font-variant:normal;font-weight:normal;font-stretch:normal;font-family:Lato;-inkscape-font-specification:Lato;text-align:start;writing-mode:lr-tb;direction:ltr;white-space:pre;shape-inside:url(#rect1);display:inline;fill:#000000" />
    <path
       style="font-weight:bold;font-size:14.1111px;font-family:Lato;-inkscape-font-specification:'Lato Bold';fill:#003366;stroke-width:0.264583"
       d="m 59.7928,72.514972 v 3.591275 H 57.894857 V 65.903922 h 3.323164 q 1.023055,0 1.770943,0.239888 0.747888,0.239889 1.234721,0.670277 0.486833,0.430389 0.719666,1.030111 0.232834,0.599722 0.232834,1.312332 0,0.740833 -0.246945,1.361721 -0.246944,0.613833 -0.740832,1.058333 -0.493889,0.444499 -1.234722,0.691444 -0.740832,0.246944 -1.735665,0.246944 z m 0,-1.481666 h 1.425221 q 0.522111,0 0.910166,-0.126999 0.388055,-0.134056 0.642055,-0.373945 0.254,-0.246944 0.381,-0.592666 0.127,-0.352777 0.127,-0.783166 0,-0.409222 -0.127,-0.740833 -0.127,-0.331611 -0.381,-0.564444 -0.254,-0.232833 -0.642055,-0.352777 -0.388055,-0.127 -0.910166,-0.127 H 59.7928 Z m 8.353772,-2.166053 v 4.600218 q 0,0.663222 0.303388,1.030111 0.310444,0.359833 0.924277,0.359833 0.451555,0 0.846666,-0.197556 0.395111,-0.204611 0.747889,-0.557388 v -5.235218 h 1.74272 v 7.238994 h -1.065388 q -0.338666,0 -0.444499,-0.3175 L 71.08168,75.210192 q -0.225777,0.225778 -0.465666,0.416278 -0.239889,0.183444 -0.515055,0.317499 -0.268111,0.127 -0.585611,0.197556 -0.310444,0.07761 -0.670277,0.07761 -0.592666,0 -1.051277,-0.197556 -0.451555,-0.204611 -0.761999,-0.571499 -0.310445,-0.366889 -0.472722,-0.867833 -0.155222,-0.507999 -0.155222,-1.114777 v -4.600218 z m 6.427613,7.238994 v -7.238994 h 1.023055 q 0.268111,0 0.373944,0.09878 0.105834,0.09878 0.141111,0.338667 l 0.105834,0.874888 q 0.388055,-0.670277 0.910166,-1.058333 0.52211,-0.388055 1.171221,-0.388055 0.536222,0 0.888999,0.246944 l -0.225777,1.305277 q -0.02117,0.127 -0.09172,0.183444 -0.07055,0.04939 -0.190499,0.04939 -0.105834,0 -0.289278,-0.04939 -0.183444,-0.04939 -0.486833,-0.04939 -0.543277,0 -0.931333,0.303388 -0.388055,0.296333 -0.656166,0.874888 v 4.508497 z m 5.764393,2.363609 v -9.602603 h 1.065388 q 0.169334,0 0.289278,0.07761 0.119944,0.07761 0.155222,0.239888 l 0.141111,0.670278 q 0.437444,-0.500944 1.001888,-0.811389 0.5715,-0.310444 1.333499,-0.310444 0.592666,0 1.079499,0.246944 0.493889,0.246945 0.846666,0.719666 0.359833,0.465667 0.550333,1.157111 0.197556,0.684388 0.197556,1.573387 0,0.811389 -0.218723,1.502833 -0.218722,0.691443 -0.627943,1.199443 -0.402167,0.508 -0.980722,0.797277 -0.571499,0.282222 -1.28411,0.282222 -0.613833,0 -1.044221,-0.183444 -0.423333,-0.1905 -0.762,-0.522111 v 2.963331 z m 3.386664,-8.360827 q -0.543277,0 -0.931332,0.232834 -0.381,0.225777 -0.712611,0.642055 v 3.245553 q 0.296333,0.366888 0.642055,0.515055 0.352778,0.141111 0.754944,0.141111 0.395111,0 0.712611,-0.148167 0.324555,-0.148166 0.543277,-0.451555 0.225778,-0.303389 0.345722,-0.761999 0.119944,-0.465667 0.119944,-1.093611 0,-0.634999 -0.105833,-1.072443 -0.09878,-0.4445 -0.289278,-0.719666 -0.190499,-0.275167 -0.465666,-0.402167 -0.268111,-0.127 -0.613833,-0.127 z m 7.683499,-1.354665 q 0.811388,0 1.467554,0.261055 0.663222,0.261055 1.128888,0.740833 0.465667,0.479777 0.719666,1.171221 0.254,0.691444 0.254,1.545166 0,0.860777 -0.254,1.552221 -0.253999,0.691444 -0.719666,1.178277 -0.465666,0.486832 -1.128888,0.747888 -0.656166,0.261055 -1.467554,0.261055 -0.811388,0 -1.47461,-0.261055 -0.663222,-0.261056 -1.135944,-0.747888 -0.465666,-0.486833 -0.726721,-1.178277 -0.254,-0.691444 -0.254,-1.552221 0,-0.853722 0.254,-1.545166 0.261055,-0.691444 0.726721,-1.171221 0.472722,-0.479778 1.135944,-0.740833 0.663222,-0.261055 1.47461,-0.261055 z m 0,6.117162 q 0.90311,0 1.333499,-0.606778 0.437444,-0.606777 0.437444,-1.777998 0,-1.171222 -0.437444,-1.785054 -0.430389,-0.613833 -1.333499,-0.613833 -0.917222,0 -1.354666,0.620888 -0.437444,0.613833 -0.437444,1.777999 0,1.164166 0.437444,1.777998 0.437444,0.606778 1.354666,0.606778 z m 9.228669,-4.593163 q -0.0706,0.112888 -0.14817,0.162277 -0.0776,0.04233 -0.19755,0.04233 -0.127,0 -0.27517,-0.07056 -0.141112,-0.07055 -0.331612,-0.155222 -0.1905,-0.09172 -0.437444,-0.162278 -0.239889,-0.07056 -0.5715,-0.07056 -0.515055,0 -0.811388,0.218722 -0.296333,0.218722 -0.296333,0.571499 0,0.232834 0.148166,0.395111 0.155223,0.155222 0.402167,0.275167 0.254,0.119944 0.571499,0.218722 0.3175,0.09172 0.649111,0.204611 0.331611,0.112888 0.649111,0.261055 0.317503,0.141111 0.564443,0.366889 0.254,0.218722 0.40217,0.529166 0.15522,0.310444 0.15522,0.747888 0,0.522111 -0.1905,0.966611 -0.1905,0.437444 -0.55739,0.761999 -0.366888,0.3175 -0.910165,0.500944 -0.536222,0.176389 -1.234722,0.176389 -0.373944,0 -0.733777,-0.07056 -0.352777,-0.0635 -0.684388,-0.183444 -0.324555,-0.119944 -0.606777,-0.282222 -0.275167,-0.162278 -0.486833,-0.352778 l 0.402166,-0.663221 q 0.07761,-0.119945 0.183444,-0.183445 0.105834,-0.0635 0.268111,-0.0635 0.162278,0 0.303389,0.09172 0.148166,0.09172 0.338666,0.197555 0.1905,0.105833 0.4445,0.197555 0.261055,0.09172 0.656166,0.09172 0.310444,0 0.529166,-0.07056 0.225778,-0.07761 0.366889,-0.197555 0.148166,-0.119945 0.211666,-0.275167 0.07056,-0.162277 0.07056,-0.331611 0,-0.253999 -0.155222,-0.416277 -0.148167,-0.162278 -0.402167,-0.282222 -0.246944,-0.119944 -0.571499,-0.211667 -0.3175,-0.09878 -0.656166,-0.211666 -0.331611,-0.112889 -0.656166,-0.261055 -0.3175,-0.155223 -0.5715,-0.388056 -0.246944,-0.232833 -0.402166,-0.571499 -0.148167,-0.338667 -0.148167,-0.818444 0,-0.4445 0.176389,-0.846666 0.176389,-0.402166 0.515055,-0.6985 0.345722,-0.303388 0.853722,-0.479777 0.515055,-0.183444 1.185332,-0.183444 0.747888,0 1.361718,0.246944 0.61384,0.246944 1.02306,0.649111 z m 4.86127,-1.523999 q 0.68439,0 1.25589,0.218722 0.57856,0.218722 0.99483,0.642055 0.41628,0.416277 0.64911,1.03011 0.23284,0.606777 0.23284,1.389944 0,0.197555 -0.0212,0.33161 -0.0141,0.127 -0.0635,0.204611 -0.0423,0.07056 -0.11994,0.105834 -0.0776,0.02822 -0.19756,0.02822 h -4.47322 q 0.0776,1.114777 0.59972,1.636887 0.52212,0.522111 1.38289,0.522111 0.42334,0 0.72672,-0.09878 0.31045,-0.09878 0.53623,-0.218722 0.23283,-0.119944 0.40216,-0.218722 0.17639,-0.09878 0.33867,-0.09878 0.10583,0 0.18344,0.04233 0.0776,0.04233 0.13406,0.119944 l 0.508,0.635 q -0.28928,0.338666 -0.64911,0.571499 -0.35984,0.225778 -0.75495,0.366889 -0.38805,0.134055 -0.79727,0.1905 -0.40217,0.05644 -0.78317,0.05644 -0.75494,0 -1.40405,-0.246944 -0.64911,-0.254 -1.12889,-0.740833 -0.47978,-0.493888 -0.75495,-1.213554 -0.27516,-0.726722 -0.27516,-1.679221 0,-0.740833 0.23989,-1.389944 0.23989,-0.656166 0.68438,-1.135943 0.45156,-0.486833 1.09362,-0.769055 0.64911,-0.282222 1.46049,-0.282222 z m 0.0353,1.248832 q -0.762,0 -1.19239,0.430389 -0.43038,0.430388 -0.55033,1.22061 h 3.27378 q 0,-0.338667 -0.0917,-0.635 -0.0917,-0.303388 -0.28222,-0.529166 -0.1905,-0.225778 -0.47978,-0.352777 -0.28927,-0.134056 -0.67733,-0.134056 z m 12.80584,-2.243665 q -0.0776,0.155222 -0.18345,0.218722 -0.0988,0.0635 -0.23988,0.0635 -0.14112,0 -0.3175,-0.105833 -0.17639,-0.112889 -0.41628,-0.246944 -0.23989,-0.134056 -0.56445,-0.239889 -0.3175,-0.112889 -0.75494,-0.112889 -0.39511,0 -0.69144,0.09878 -0.28928,0.09172 -0.49389,0.261055 -0.19756,0.169333 -0.29634,0.409222 -0.0988,0.232833 -0.0988,0.515055 0,0.359833 0.19755,0.599722 0.20461,0.239889 0.53622,0.409222 0.33162,0.169333 0.75495,0.303389 0.42333,0.134055 0.86078,0.289277 0.44449,0.148167 0.86783,0.352778 0.42333,0.197555 0.75494,0.507999 0.33161,0.303389 0.52917,0.747889 0.20461,0.444499 0.20461,1.079499 0,0.691444 -0.23989,1.298221 -0.23283,0.599722 -0.69144,1.051277 -0.45156,0.4445 -1.10773,0.705555 -0.65616,0.254 -1.50283,0.254 -0.48683,0 -0.95955,-0.09878 -0.47272,-0.09172 -0.91017,-0.268111 -0.43039,-0.176389 -0.81139,-0.423333 -0.37394,-0.246944 -0.67027,-0.550333 l 0.55033,-0.910166 q 0.0776,-0.09878 0.18344,-0.162277 0.11289,-0.07056 0.24695,-0.07056 0.17639,0 0.381,0.148167 0.20461,0.141111 0.47978,0.317499 0.28222,0.176389 0.65616,0.324556 0.381,0.141111 0.91017,0.141111 0.81139,0 1.25589,-0.381 0.44449,-0.388055 0.44449,-1.107721 0,-0.402167 -0.20461,-0.656167 -0.19755,-0.253999 -0.52916,-0.423333 -0.33161,-0.176388 -0.75495,-0.296333 -0.42333,-0.119944 -0.86077,-0.261055 -0.43745,-0.141111 -0.86078,-0.338666 -0.42333,-0.197556 -0.75494,-0.515056 -0.33162,-0.317499 -0.53623,-0.790221 -0.19755,-0.479778 -0.19755,-1.178277 0,-0.557388 0.21872,-1.086555 0.22578,-0.529166 0.64911,-0.938388 0.43039,-0.409222 1.05128,-0.656166 0.62089,-0.246944 1.41816,-0.246944 0.90311,0 1.66511,0.282222 0.762,0.282222 1.29822,0.790221 z m 4.38151,8.459605 q -0.93839,0 -1.44639,-0.529167 -0.508,-0.536221 -0.508,-1.474609 v -4.042831 h -0.73378 q -0.14111,0 -0.24694,-0.09172 -0.0988,-0.09172 -0.0988,-0.275166 v -0.691444 l 1.16417,-0.1905 0.36689,-1.975554 q 0.0282,-0.141111 0.127,-0.218722 0.10583,-0.07761 0.26105,-0.07761 h 0.90311 v 2.278942 h 1.905 v 1.241777 h -1.905 v 3.922886 q 0,0.338667 0.16933,0.529166 0.16934,0.1905 0.45156,0.1905 0.16228,0 0.26811,-0.03528 0.11289,-0.04233 0.1905,-0.08467 0.0847,-0.04233 0.14817,-0.07761 0.0635,-0.04233 0.127,-0.04233 0.0776,0 0.127,0.04233 0.0494,0.03528 0.10583,0.112889 l 0.52211,0.846666 q -0.381,0.317499 -0.87489,0.479777 -0.49389,0.162278 -1.02305,0.162278 z m 4.67781,-7.351883 v 4.600218 q 0,0.663222 0.30339,1.030111 0.31045,0.359833 0.92428,0.359833 0.45156,0 0.84667,-0.197556 0.39511,-0.204611 0.74788,-0.557388 v -5.235218 h 1.74273 v 7.238994 h -1.06539 q -0.33867,0 -0.4445,-0.3175 l -0.11995,-0.578555 q -0.22577,0.225778 -0.46566,0.416278 -0.23989,0.183444 -0.51506,0.317499 -0.26811,0.127 -0.58561,0.197556 -0.31044,0.07761 -0.67028,0.07761 -0.59266,0 -1.05127,-0.197556 -0.45156,-0.204611 -0.762,-0.571499 -0.31045,-0.366889 -0.47272,-0.867833 -0.15523,-0.507999 -0.15523,-1.114777 v -4.600218 z m 11.52173,7.238994 q -0.33867,0 -0.4445,-0.3175 l -0.14111,-0.698499 q -0.22578,0.254 -0.47272,0.45861 -0.24695,0.204611 -0.53623,0.352778 -0.28222,0.148167 -0.61383,0.225778 -0.32455,0.08467 -0.70555,0.08467 -0.59267,0 -1.08656,-0.246944 -0.49389,-0.246944 -0.85372,-0.712611 -0.35278,-0.472721 -0.55033,-1.164165 -0.1905,-0.691444 -0.1905,-1.580444 0,-0.804332 0.21872,-1.495776 0.21872,-0.691444 0.62794,-1.199444 0.40923,-0.507999 0.98072,-0.790221 0.5715,-0.289278 1.28411,-0.289278 0.60678,0 1.03717,0.197555 0.43039,0.1905 0.76906,0.515056 V 65.6217 h 1.74272 v 10.484547 z m -2.32128,-1.277055 q 0.54328,0 0.92428,-0.225777 0.381,-0.225778 0.71967,-0.642055 v -3.245553 q -0.29634,-0.359833 -0.64912,-0.508 -0.34572,-0.148166 -0.74788,-0.148166 -0.39511,0 -0.71967,0.148166 -0.3175,0.148167 -0.54328,0.451555 -0.21872,0.296333 -0.33866,0.762 -0.11995,0.45861 -0.11995,1.086554 0,0.635 0.0988,1.0795 0.10583,0.437444 0.29633,0.719666 0.1905,0.275166 0.46567,0.402166 0.27517,0.119944 0.61383,0.119944 z m 7.83871,3.26672 q -0.0776,0.183444 -0.20461,0.275167 -0.11994,0.09878 -0.37394,0.09878 h -1.29823 l 1.35467,-2.899831 -2.92805,-6.702772 h 1.524 q 0.21166,0 0.32455,0.09878 0.11289,0.09878 0.16933,0.225778 l 1.54517,3.753553 q 0.0776,0.183444 0.13406,0.380999 0.0564,0.197556 0.0988,0.395111 0.0565,-0.204611 0.11995,-0.395111 0.0705,-0.1905 0.14816,-0.388055 l 1.45345,-3.746497 q 0.0564,-0.141111 0.18344,-0.232833 0.13406,-0.09172 0.29633,-0.09172 h 1.397 z m 16.7499,-1.989665 h -1.46755 q -0.24695,0 -0.40922,-0.119944 -0.15523,-0.127 -0.22578,-0.310445 l -0.762,-2.081387 h -4.22628 l -0.76199,2.081387 q -0.0565,0.162278 -0.22578,0.296333 -0.16228,0.134056 -0.40217,0.134056 h -1.47461 l 4.00755,-10.202325 h 1.94028 z m -6.60399,-3.85233 h 3.25261 l -1.24178,-3.39372 q -0.0847,-0.225778 -0.1905,-0.529166 -0.0988,-0.310444 -0.19756,-0.670278 -0.0988,0.359834 -0.19755,0.670278 -0.0917,0.310444 -0.18345,0.543277 z m 7.57764,3.85233 V 65.6217 h 1.74273 v 4.134552 q 0.43038,-0.458611 0.97366,-0.726722 0.54328,-0.275166 1.27,-0.275166 0.59267,0 1.0795,0.246944 0.49389,0.239889 0.84667,0.705555 0.35983,0.465666 0.55033,1.150055 0.19755,0.684388 0.19755,1.573387 0,0.811389 -0.21872,1.502833 -0.21872,0.691443 -0.62794,1.199443 -0.40217,0.508 -0.98072,0.797277 -0.5715,0.282222 -1.28411,0.282222 -0.33161,0 -0.60678,-0.07055 -0.27517,-0.0635 -0.50095,-0.183445 -0.22577,-0.119944 -0.42333,-0.289277 -0.1905,-0.176389 -0.36689,-0.388055 l -0.0776,0.486833 q -0.0423,0.183444 -0.14816,0.261055 -0.0988,0.07761 -0.27517,0.07761 z m 3.38667,-5.997218 q -0.54328,0 -0.93133,0.232834 -0.381,0.225777 -0.71261,0.642055 v 3.245553 q 0.29633,0.366888 0.64205,0.515055 0.35278,0.141111 0.762,0.141111 0.39511,0 0.71261,-0.148167 0.3175,-0.148166 0.53622,-0.451555 0.22578,-0.303389 0.34572,-0.761999 0.11995,-0.465667 0.11995,-1.093611 0,-0.634999 -0.10583,-1.072443 -0.0988,-0.4445 -0.28928,-0.719666 -0.1905,-0.275167 -0.46567,-0.402167 -0.26811,-0.127 -0.61383,-0.127 z m 4.63549,5.997218 v -7.238994 h 1.02305 q 0.26811,0 0.37395,0.09878 0.10583,0.09878 0.14111,0.338667 l 0.10583,0.874888 q 0.38806,-0.670277 0.91017,-1.058333 0.52211,-0.388055 1.17122,-0.388055 0.53622,0 0.889,0.246944 l -0.22578,1.305277 q -0.0212,0.127 -0.0917,0.183444 -0.0706,0.04939 -0.1905,0.04939 -0.10584,0 -0.28928,-0.04939 -0.18344,-0.04939 -0.48683,-0.04939 -0.54328,0 -0.93134,0.303388 -0.38805,0.296333 -0.65616,0.874888 v 4.508497 z m 8.85473,-7.351883 q 0.81138,0 1.46755,0.261055 0.66322,0.261055 1.12889,0.740833 0.46566,0.479777 0.71966,1.171221 0.254,0.691444 0.254,1.545166 0,0.860777 -0.254,1.552221 -0.254,0.691444 -0.71966,1.178277 -0.46567,0.486832 -1.12889,0.747888 -0.65617,0.261055 -1.46755,0.261055 -0.81139,0 -1.47461,-0.261055 -0.66323,-0.261056 -1.13595,-0.747888 -0.46566,-0.486833 -0.72672,-1.178277 -0.254,-0.691444 -0.254,-1.552221 0,-0.853722 0.254,-1.545166 0.26106,-0.691444 0.72672,-1.171221 0.47272,-0.479778 1.13595,-0.740833 0.66322,-0.261055 1.47461,-0.261055 z m 0,6.117162 q 0.90311,0 1.33349,-0.606778 0.43745,-0.606777 0.43745,-1.777998 0,-1.171222 -0.43745,-1.785054 -0.43038,-0.613833 -1.33349,-0.613833 -0.91723,0 -1.35467,0.620888 -0.43744,0.613833 -0.43744,1.777999 0,1.164166 0.43744,1.777998 0.43744,0.606778 1.35467,0.606778 z m 10.60449,1.234721 h -0.78317 q -0.24694,0 -0.38805,-0.07056 -0.14111,-0.07761 -0.21167,-0.303388 l -0.15522,-0.515055 q -0.27517,0.246944 -0.54328,0.437444 -0.26105,0.183444 -0.54327,0.310444 -0.28223,0.127 -0.59973,0.1905 -0.3175,0.0635 -0.70555,0.0635 -0.45861,0 -0.84667,-0.119945 -0.38805,-0.127 -0.67027,-0.373944 -0.27517,-0.246944 -0.43039,-0.613833 -0.15523,-0.366888 -0.15523,-0.853721 0,-0.409222 0.21167,-0.804333 0.21872,-0.402166 0.71967,-0.719666 0.50094,-0.324555 1.3335,-0.536222 0.83255,-0.211666 2.06727,-0.239889 V 71.53425 q 0,-0.726721 -0.31044,-1.072443 -0.30339,-0.352778 -0.889,-0.352778 -0.42333,0 -0.70556,0.09878 -0.28222,0.09878 -0.49388,0.225778 -0.20462,0.119944 -0.381,0.218722 -0.17639,0.09878 -0.38806,0.09878 -0.17639,0 -0.30339,-0.09172 -0.127,-0.09172 -0.20461,-0.225777 l -0.3175,-0.557389 q 1.24883,-1.142999 3.01272,-1.142999 0.635,0 1.12889,0.211667 0.50094,0.204611 0.84666,0.578555 0.34573,0.366888 0.52212,0.881943 0.18344,0.515056 0.18344,1.128888 z m -3.38666,-1.086555 q 0.26811,0 0.49388,-0.04939 0.22578,-0.04939 0.42334,-0.148166 0.20461,-0.09878 0.38805,-0.239889 0.1905,-0.148166 0.381,-0.345722 v -1.22061 q -0.762,0.03528 -1.27705,0.134055 -0.508,0.09172 -0.81845,0.239889 -0.31044,0.148167 -0.4445,0.345722 -0.127,0.197556 -0.127,0.430389 0,0.45861 0.26812,0.656166 0.27516,0.197555 0.71261,0.197555 z m 10.19527,1.086555 q -0.33866,0 -0.4445,-0.3175 l -0.14111,-0.698499 q -0.22577,0.254 -0.47272,0.45861 -0.24694,0.204611 -0.53622,0.352778 -0.28222,0.148167 -0.61383,0.225778 -0.32456,0.08467 -0.70556,0.08467 -0.59266,0 -1.08655,-0.246944 -0.49389,-0.246944 -0.85372,-0.712611 -0.35278,-0.472721 -0.55034,-1.164165 -0.1905,-0.691444 -0.1905,-1.580444 0,-0.804332 0.21872,-1.495776 0.21873,-0.691444 0.62795,-1.199444 0.40922,-0.507999 0.98072,-0.790221 0.5715,-0.289278 1.28411,-0.289278 0.60678,0 1.03717,0.197555 0.43038,0.1905 0.76905,0.515056 V 65.6217 h 1.74272 v 10.484547 z m -2.32127,-1.277055 q 0.54328,0 0.92427,-0.225777 0.381,-0.225778 0.71967,-0.642055 v -3.245553 q -0.29633,-0.359833 -0.64911,-0.508 -0.34572,-0.148166 -0.74789,-0.148166 -0.39511,0 -0.71966,0.148166 -0.3175,0.148167 -0.54328,0.451555 -0.21872,0.296333 -0.33867,0.762 -0.11994,0.45861 -0.11994,1.086554 0,0.635 0.0988,1.0795 0.10583,0.437444 0.29633,0.719666 0.1905,0.275166 0.46566,0.402166 0.27517,0.119944 0.61384,0.119944 z"
       id="text2"
       aria-label="Purpose Study Abroad " />
  </g>
</svg>
