<?xml version="1.0" encoding="UTF-8" standalone="no"?>
<!-- Created with Inkscape (http://www.inkscape.org/) -->

<svg
   width="149.67201mm"
   height="12.84815mm"
   viewBox="0 0 149.67201 12.84815"
   version="1.1"
   id="svg1"
   inkscape:version="1.4.2 (f4327f4, 2025-05-13)"
   sodipodi:docname="logo.svg"
   xmlns:inkscape="http://www.inkscape.org/namespaces/inkscape"
   xmlns:sodipodi="http://sodipodi.sourceforge.net/DTD/sodipodi-0.dtd"
   xmlns="http://www.w3.org/2000/svg"
   xmlns:svg="http://www.w3.org/2000/svg">
  <sodipodi:namedview
     id="namedview1"
     pagecolor="#ffffff"
     bordercolor="#000000"
     borderopacity="0.25"
     inkscape:showpageshadow="2"
     inkscape:pageopacity="0.0"
     inkscape:pagecheckerboard="0"
     inkscape:deskcolor="#d1d1d1"
     inkscape:document-units="mm"
     inkscape:zoom="0.71268238"
     inkscape:cx="271.50945"
     inkscape:cy="311.49921"
     inkscape:window-width="1920"
     inkscape:window-height="1002"
     inkscape:window-x="-8"
     inkscape:window-y="1342"
     inkscape:window-maximized="1"
     inkscape:current-layer="text5" />
  <defs
     id="defs1">
    <rect
       x="228.71339"
       y="7.015748"
       width="181.0063"
       height="46.303936"
       id="rect4" />
    <rect
       x="-15.434646"
       y="-11.225197"
       width="171.18425"
       height="85.592125"
       id="rect3" />
    <rect
       x="103.83307"
       y="245.55118"
       width="440.58899"
       height="140.31496"
       id="rect1" />
  </defs>
  <g
     inkscape:label="Layer 1"
     inkscape:groupmode="layer"
     id="layer1"
     transform="translate(-33.321786,-65.903399)">
    <g
       id="text5"
       style="font-weight:bold;font-size:14.1111px;font-family:Lato;-inkscape-font-specification:'Lato Bold';letter-spacing:0.264583px;word-spacing:0.264583px;stroke-width:0.264583"
       aria-label="SportStudyAbroad.com">
      <path
         id="path16"
         style="font-style:italic;-inkscape-font-specification:'Lato Bold Italic';word-spacing:0px;mix-blend-mode:normal;fill:#f4b400;fill-rule:nonzero;opacity:1;fill-opacity:1"
         d="m 62.270732,74.913337 q 0,-0.04939 0,-0.112889 0,-0.07055 0.0071,-0.197555 0.01411,-0.134056 0.03528,-0.345722 0.02822,-0.218722 0.07056,-0.557389 l 0.402166,-3.245553 H 62.10145 q -0.119944,0 -0.197555,-0.07055 -0.07056,-0.07761 -0.07056,-0.225778 0,-0.0071 0,-0.02822 0.0071,-0.02117 0.01411,-0.09172 0.0071,-0.07761 0.02117,-0.225778 0.02117,-0.148166 0.04939,-0.416277 l 1.100665,-0.1905 0.578556,-1.975554 q 0.04233,-0.141111 0.141111,-0.218722 0.105833,-0.07761 0.253999,-0.07761 h 0.931333 l -0.282222,2.278943 h 1.749776 l -0.148166,1.241776 H 64.486175 L 64.09812,73.60806 q -0.03528,0.289278 -0.05644,0.458611 -0.01411,0.169333 -0.02822,0.268111 -0.0071,0.09172 -0.01411,0.134055 0,0.03528 0,0.04939 0,0.268111 0.127,0.423333 0.134055,0.155222 0.373944,0.155222 0.148167,0 0.254,-0.03528 0.105833,-0.04233 0.183444,-0.08467 0.07761,-0.04233 0.134056,-0.07761 0.0635,-0.04233 0.119944,-0.04233 0.07761,0 0.119944,0.04233 0.04939,0.03528 0.08467,0.112889 l 0.373944,0.846666 q -0.388055,0.3175 -0.860777,0.479777 -0.472722,0.162278 -0.952499,0.162278 -0.769055,0 -1.220611,-0.416278 -0.444499,-0.416277 -0.465666,-1.171221 z M 39.989296,68.020065 q -0.09878,0.141111 -0.197555,0.211666 -0.09878,0.0635 -0.239889,0.0635 -0.141111,0 -0.289277,-0.112889 -0.148167,-0.112888 -0.352778,-0.246944 -0.204611,-0.141111 -0.486833,-0.254 -0.275166,-0.112889 -0.670277,-0.112889 -0.388055,0 -0.684389,0.112889 -0.296333,0.112889 -0.500944,0.310444 -0.197555,0.197556 -0.303388,0.465667 -0.09878,0.268111 -0.09878,0.578555 0,0.324555 0.162278,0.543277 0.169333,0.211667 0.437444,0.373944 0.268111,0.162278 0.613833,0.289278 0.345722,0.127 0.698499,0.268111 0.359833,0.141111 0.705555,0.324555 0.345722,0.183444 0.613833,0.451555 0.268111,0.268111 0.430389,0.649111 0.169333,0.373944 0.169333,0.910166 0,0.747888 -0.261056,1.41111 -0.253999,0.663222 -0.740832,1.164166 -0.479778,0.493888 -1.171222,0.790221 -0.684388,0.289278 -1.545165,0.289278 -0.4445,0 -0.874888,-0.09878 Q 34.9728,76.310336 34.5918,76.133947 34.210801,75.957559 33.886245,75.710614 33.56169,75.46367 33.321801,75.160281 l 0.649111,-0.874888 q 0.07761,-0.09878 0.197555,-0.162277 0.119945,-0.0635 0.239889,-0.0635 0.112889,0 0.218722,0.07055 0.112889,0.07056 0.239889,0.176389 0.134055,0.09878 0.282222,0.225777 0.155222,0.119945 0.352777,0.225778 0.197556,0.09878 0.4445,0.169333 0.246944,0.07056 0.5715,0.07056 0.797277,0 1.248832,-0.451555 0.451555,-0.451556 0.451555,-1.248833 0,-0.352777 -0.162278,-0.578555 -0.162277,-0.225778 -0.430388,-0.381 Q 37.357576,72.182838 37.01891,72.069949 36.680243,71.950005 36.32041,71.823005 35.967633,71.68895 35.628966,71.519617 35.2903,71.343228 35.022189,71.075117 34.754078,70.79995 34.5918,70.40484 q -0.162277,-0.395111 -0.162277,-0.973666 0,-0.656166 0.239888,-1.262944 0.246945,-0.606777 0.6985,-1.065388 0.451555,-0.465666 1.09361,-0.740833 0.649111,-0.282222 1.460499,-0.282222 0.416277,0 0.797277,0.08467 0.388055,0.08467 0.719666,0.239889 0.331611,0.155222 0.606778,0.373944 0.282222,0.211666 0.486833,0.472722 z m 0.723183,10.731491 1.171221,-9.609659 h 0.881944 q 0.239889,0 0.409222,0.105833 0.169333,0.09878 0.169333,0.331611 0,0 0,0.02117 0,0.02117 -0.0071,0.134055 -0.0071,0.105834 -0.01411,0.345722 -0.0071,0.232833 -0.02822,0.663222 0.522111,-0.783166 1.178277,-1.241777 0.663222,-0.465666 1.396999,-0.465666 0.451555,0 0.818444,0.169333 0.373944,0.162278 0.634999,0.493889 0.261056,0.33161 0.402167,0.83961 0.141111,0.508 0.141111,1.192388 0,0.613833 -0.127,1.206499 -0.127,0.592666 -0.359833,1.121833 -0.232834,0.529166 -0.557389,0.973665 -0.3175,0.4445 -0.71261,0.769055 -0.395111,0.324556 -0.846666,0.508 -0.4445,0.183444 -0.924278,0.183444 -0.486832,0 -0.888999,-0.169333 -0.395111,-0.176389 -0.684388,-0.486833 l -0.359833,2.913942 z m 4.480274,-8.346715 q -0.289278,0 -0.585611,0.197555 -0.296333,0.1905 -0.571499,0.536222 -0.275167,0.338666 -0.515055,0.804333 -0.232833,0.465666 -0.402167,1.001888 l -0.211666,1.756832 q 0.239889,0.253999 0.543277,0.359833 0.310444,0.105833 0.613833,0.105833 0.465666,0 0.846666,-0.289278 0.381,-0.289277 0.649111,-0.754943 0.275166,-0.465667 0.423333,-1.044222 0.148166,-0.585611 0.148166,-1.171221 0,-0.762 -0.246944,-1.128888 -0.246944,-0.373944 -0.691444,-0.373944 z m 6.431144,4.748385 q 0.437444,0 0.790221,-0.246944 0.352778,-0.254 0.599722,-0.670278 0.254,-0.423333 0.388055,-0.980721 0.134056,-0.557389 0.134056,-1.171221 0,-0.881944 -0.303389,-1.298222 -0.296333,-0.416277 -0.90311,-0.416277 -0.437444,0 -0.790222,0.246944 -0.352777,0.246944 -0.599722,0.670277 -0.246944,0.423333 -0.380999,0.980722 -0.134056,0.557388 -0.134056,1.178277 0,0.881943 0.296333,1.298221 0.296333,0.409222 0.903111,0.409222 z m -0.155222,1.340554 q -0.599722,0 -1.114777,-0.197555 -0.508,-0.204611 -0.881944,-0.592666 -0.366889,-0.388056 -0.578555,-0.9525 -0.211667,-0.564444 -0.211667,-1.291165 0,-0.938388 0.296333,-1.749777 0.303389,-0.811388 0.818444,-1.404054 0.522111,-0.592666 1.213555,-0.931333 0.691444,-0.338666 1.47461,-0.338666 0.599721,0 1.107721,0.204611 0.515055,0.197555 0.888999,0.58561 0.373945,0.388056 0.585611,0.9525 0.211667,0.564444 0.211667,1.291165 0,0.931333 -0.303389,1.742721 -0.303389,0.804333 -0.825499,1.404055 -0.515056,0.592666 -1.2065,0.938388 -0.691443,0.338666 -1.474609,0.338666 z m 4.737804,-0.105833 0.881943,-7.24605 h 0.881944 q 0.254,0 0.416278,0.112889 0.162277,0.112889 0.162277,0.359833 0,0 0,0.02822 0,0.02117 -0.0071,0.141111 -0.0071,0.119945 -0.01411,0.381 -0.0071,0.254 -0.02822,0.719666 0.4445,-0.853722 0.973666,-1.319388 0.529167,-0.465666 1.100666,-0.465666 0.289278,0 0.585611,0.127 l -0.3175,1.66511 q -0.352777,-0.148167 -0.670277,-0.148167 -0.627944,0 -1.100666,0.599722 -0.472722,0.599722 -0.77611,1.876776 l -0.381,3.167942 z" />
      <path
         style="word-spacing:0px;fill:#003366"
         d="m 73.498692,68.041231 q -0.07761,0.155222 -0.183444,0.218722 -0.09878,0.0635 -0.239889,0.0635 -0.141111,0 -0.3175,-0.105833 -0.176389,-0.112889 -0.416277,-0.246944 -0.239889,-0.134056 -0.564444,-0.239889 -0.3175,-0.112889 -0.754944,-0.112889 -0.395111,0 -0.691444,0.09878 -0.289278,0.09172 -0.493889,0.261055 -0.197555,0.169334 -0.296333,0.409222 -0.09878,0.232833 -0.09878,0.515055 0,0.359833 0.197555,0.599722 0.204611,0.239889 0.536222,0.409222 0.331611,0.169333 0.754944,0.303389 0.423333,0.134055 0.860777,0.289277 0.444499,0.148167 0.867832,0.352778 0.423333,0.197555 0.754944,0.507999 0.331611,0.303389 0.529167,0.747889 0.20461,0.444499 0.20461,1.079499 0,0.691444 -0.239888,1.298221 -0.232833,0.599722 -0.691444,1.051277 -0.451555,0.4445 -1.107721,0.705555 -0.656167,0.254 -1.502833,0.254 -0.486833,0 -0.959554,-0.09878 -0.472722,-0.09172 -0.910166,-0.268111 -0.430389,-0.176388 -0.811389,-0.423333 -0.373944,-0.246944 -0.670277,-0.550333 l 0.550333,-0.910166 q 0.07761,-0.09878 0.183444,-0.162277 0.112889,-0.07056 0.246945,-0.07056 0.176388,0 0.380999,0.148167 0.204611,0.141111 0.479778,0.3175 0.282222,0.176388 0.656166,0.324555 0.380999,0.141111 0.910166,0.141111 0.811388,0 1.255888,-0.381 0.444499,-0.388055 0.444499,-1.107721 0,-0.402167 -0.204611,-0.656166 -0.197555,-0.254 -0.529166,-0.423333 -0.331611,-0.176389 -0.754944,-0.296333 -0.423333,-0.119945 -0.860777,-0.261056 -0.437444,-0.141111 -0.860777,-0.338666 -0.423333,-0.197556 -0.754944,-0.515055 -0.331611,-0.3175 -0.536222,-0.790222 -0.197555,-0.479777 -0.197555,-1.178277 0,-0.557388 0.218722,-1.086555 0.225778,-0.529166 0.649111,-0.938388 0.430388,-0.409222 1.051277,-0.656166 0.620888,-0.246944 1.418165,-0.246944 0.903111,0 1.66511,0.282222 0.761999,0.282222 1.298221,0.790221 z"
         id="path17" />
      <path
         style="fill:#003366"
         d="m 78.144785,76.500836 q -0.938389,0 -1.446388,-0.529166 -0.508,-0.536222 -0.508,-1.47461 V 70.454229 H 75.45662 q -0.141111,0 -0.246944,-0.09172 -0.09878,-0.09172 -0.09878,-0.275166 v -0.691444 l 1.164166,-0.1905 0.366888,-1.975554 q 0.02822,-0.141111 0.127,-0.218722 0.105833,-0.07761 0.261056,-0.07761 h 0.90311 v 2.278943 h 1.904999 v 1.241776 h -1.904999 v 3.922886 q 0,0.338667 0.169333,0.529167 0.169333,0.190499 0.451555,0.190499 0.162278,0 0.268111,-0.03528 0.112889,-0.04233 0.1905,-0.08467 0.08467,-0.04233 0.148167,-0.07761 0.0635,-0.04233 0.127,-0.04233 0.07761,0 0.127,0.04233 0.04939,0.03528 0.105833,0.112889 l 0.52211,0.846666 q -0.380999,0.3175 -0.874888,0.479777 -0.493888,0.162278 -1.023054,0.162278 z m 4.9424,-7.351883 v 4.600218 q 0,0.663222 0.303389,1.030111 0.310444,0.359833 0.924277,0.359833 0.451555,0 0.846666,-0.197556 0.395111,-0.204611 0.747888,-0.557388 v -5.235218 h 1.742721 v 7.238994 h -1.065388 q -0.338666,0 -0.4445,-0.3175 l -0.119944,-0.578555 q -0.225777,0.225778 -0.465666,0.416278 -0.239889,0.183444 -0.515055,0.317499 -0.268111,0.127 -0.585611,0.197556 -0.310444,0.07761 -0.670277,0.07761 -0.592666,0 -1.051277,-0.197556 -0.451555,-0.20461 -0.762,-0.571499 -0.310444,-0.366889 -0.472721,-0.867833 -0.155223,-0.507999 -0.155223,-1.114777 v -4.600218 z m 11.786304,7.238994 q -0.338666,0 -0.4445,-0.3175 l -0.141111,-0.698499 q -0.225777,0.254 -0.472722,0.458611 -0.246944,0.204611 -0.536221,0.352777 -0.282222,0.148167 -0.613833,0.225778 -0.324556,0.08467 -0.705555,0.08467 -0.592666,0 -1.086555,-0.246944 -0.493888,-0.246944 -0.853722,-0.71261 -0.352777,-0.472722 -0.550332,-1.164166 -0.1905,-0.691444 -0.1905,-1.580443 0,-0.804333 0.218722,-1.495777 0.218722,-0.691444 0.627944,-1.199444 0.409222,-0.507999 0.980721,-0.790221 0.5715,-0.289278 1.28411,-0.289278 0.606778,0 1.037166,0.197556 0.430389,0.190499 0.769055,0.515055 V 65.9034 h 1.742721 v 10.484547 z m -2.321276,-1.277054 q 0.543277,0 0.924277,-0.225778 0.381,-0.225778 0.719666,-0.642055 v -3.245553 q -0.296333,-0.359833 -0.64911,-0.508 -0.345722,-0.148166 -0.747889,-0.148166 -0.395111,0 -0.719666,0.148166 -0.3175,0.148167 -0.543277,0.451555 -0.218722,0.296334 -0.338667,0.762 -0.119944,0.458611 -0.119944,1.086555 0,0.634999 0.09878,1.079499 0.105833,0.437444 0.296333,0.719666 0.1905,0.275166 0.465666,0.402166 0.275167,0.119945 0.613833,0.119945 z m 8.103297,3.266719 q -0.0776,0.183445 -0.20461,0.275167 -0.11995,0.09878 -0.37395,0.09878 h -1.298217 l 1.354667,-2.899831 -2.928055,-6.702772 h 1.523999 q 0.211666,0 0.324555,0.09878 0.112889,0.09878 0.169333,0.225778 l 1.545168,3.753553 q 0.0776,0.183444 0.13405,0.380999 0.0564,0.197556 0.0988,0.395111 0.0564,-0.204611 0.11995,-0.395111 0.0706,-0.1905 0.14816,-0.388055 l 1.45345,-3.746497 q 0.0564,-0.141111 0.18344,-0.232833 0.13406,-0.09172 0.29633,-0.09172 h 1.397 z m 13.64897,-1.989665 h -1.46755 q -0.24694,0 -0.40922,-0.119944 -0.15522,-0.127 -0.22578,-0.310444 l -0.762,-2.081388 h -4.22627 l -0.762,2.081388 q -0.0564,0.162277 -0.22578,0.296333 -0.16228,0.134055 -0.40217,0.134055 h -1.47461 l 4.00756,-10.202325 h 1.94027 z m -6.60399,-3.85233 h 3.25261 l -1.24178,-3.39372 q -0.0847,-0.225777 -0.1905,-0.529166 -0.0988,-0.310444 -0.19755,-0.670277 -0.0988,0.359833 -0.19756,0.670277 -0.0917,0.310444 -0.18344,0.543277 z m 7.84223,3.85233 V 65.9034 h 1.74272 v 4.134552 q 0.43039,-0.458611 0.97366,-0.726722 0.54328,-0.275166 1.27,-0.275166 0.59267,0 1.0795,0.246944 0.49389,0.239889 0.84667,0.705555 0.35983,0.465666 0.55033,1.150055 0.19756,0.684388 0.19756,1.573387 0,0.811389 -0.21873,1.502833 -0.21872,0.691444 -0.62794,1.199443 -0.40217,0.508 -0.98072,0.797277 -0.5715,0.282222 -1.28411,0.282222 -0.33161,0 -0.60678,-0.07055 -0.27517,-0.0635 -0.50094,-0.183444 -0.22578,-0.119945 -0.42334,-0.289278 -0.1905,-0.176389 -0.36688,-0.388055 l -0.0776,0.486833 q -0.0423,0.183444 -0.14816,0.261055 -0.0988,0.07761 -0.27517,0.07761 z m 3.38666,-5.997218 q -0.54328,0 -0.93133,0.232834 -0.381,0.225777 -0.71261,0.642055 v 3.245553 q 0.29633,0.366888 0.64205,0.515055 0.35278,0.141111 0.762,0.141111 0.39511,0 0.71261,-0.148167 0.3175,-0.148166 0.53622,-0.451555 0.22578,-0.303389 0.34573,-0.761999 0.11994,-0.465667 0.11994,-1.093611 0,-0.634999 -0.10583,-1.072443 -0.0988,-0.4445 -0.28928,-0.719666 -0.1905,-0.275167 -0.46567,-0.402167 -0.26811,-0.127 -0.61383,-0.127 z m 4.90008,5.997218 v -7.238994 h 1.02305 q 0.26811,0 0.37395,0.09878 0.10583,0.09878 0.14111,0.338667 l 0.10583,0.874888 q 0.38806,-0.670277 0.91017,-1.058333 0.52211,-0.388055 1.17122,-0.388055 0.53622,0 0.889,0.246944 l -0.22578,1.305277 q -0.0212,0.127 -0.0917,0.183445 -0.0706,0.04939 -0.1905,0.04939 -0.10584,0 -0.28928,-0.04939 -0.18344,-0.04939 -0.48683,-0.04939 -0.54328,0 -0.93134,0.303388 -0.38805,0.296333 -0.65616,0.874889 v 4.508496 z m 9.1193,-7.351883 q 0.81139,0 1.46756,0.261055 0.66322,0.261056 1.12889,0.740833 0.46566,0.479777 0.71966,1.171221 0.254,0.691444 0.254,1.545166 0,0.860777 -0.254,1.552221 -0.254,0.691444 -0.71966,1.178277 -0.46567,0.486833 -1.12889,0.747888 -0.65617,0.261055 -1.46756,0.261055 -0.81138,0 -1.47461,-0.261055 -0.66322,-0.261055 -1.13594,-0.747888 -0.46567,-0.486833 -0.72672,-1.178277 -0.254,-0.691444 -0.254,-1.552221 0,-0.853722 0.254,-1.545166 0.26105,-0.691444 0.72672,-1.171221 0.47272,-0.479777 1.13594,-0.740833 0.66323,-0.261055 1.47461,-0.261055 z m 0,6.117162 q 0.90312,0 1.3335,-0.606777 0.43745,-0.606778 0.43745,-1.777999 0,-1.171221 -0.43745,-1.785054 -0.43038,-0.613833 -1.3335,-0.613833 -0.91722,0 -1.35466,0.620888 -0.43745,0.613833 -0.43745,1.777999 0,1.164166 0.43745,1.777999 0.43744,0.606777 1.35466,0.606777 z m 10.86909,1.234721 h -0.78317 q -0.24694,0 -0.38805,-0.07055 -0.14112,-0.07761 -0.21167,-0.303389 l -0.15522,-0.515055 q -0.27517,0.246944 -0.54328,0.437444 -0.26106,0.183444 -0.54328,0.310444 -0.28222,0.127 -0.59972,0.1905 -0.3175,0.0635 -0.70555,0.0635 -0.45862,0 -0.84667,-0.119944 -0.38806,-0.127 -0.67028,-0.373945 -0.27516,-0.246944 -0.43039,-0.613832 -0.15522,-0.366889 -0.15522,-0.853722 0,-0.409222 0.21167,-0.804333 0.21872,-0.402166 0.71966,-0.719666 0.50095,-0.324555 1.3335,-0.536222 0.83256,-0.211666 2.06728,-0.239888 v -0.423333 q 0,-0.726722 -0.31044,-1.072444 -0.30339,-0.352778 -0.889,-0.352778 -0.42334,0 -0.70556,0.09878 -0.28222,0.09878 -0.49389,0.225778 -0.20461,0.119944 -0.381,0.218722 -0.17639,0.09878 -0.38805,0.09878 -0.17639,0 -0.30339,-0.09172 -0.127,-0.09172 -0.20461,-0.225777 l -0.3175,-0.557389 q 1.24883,-1.142999 3.01272,-1.142999 0.635,0 1.12889,0.211667 0.50094,0.204611 0.84666,0.578555 0.34572,0.366888 0.52211,0.881944 0.18345,0.515055 0.18345,1.128888 z m -3.38667,-1.086555 q 0.26811,0 0.49389,-0.04939 0.22578,-0.04939 0.42333,-0.148167 0.20462,-0.09878 0.38806,-0.239889 0.1905,-0.148166 0.381,-0.345722 v -1.22061 q -0.762,0.03528 -1.27706,0.134056 -0.50799,0.09172 -0.81844,0.239888 -0.31044,0.148167 -0.4445,0.345722 -0.127,0.197556 -0.127,0.430389 0,0.458611 0.26811,0.656166 0.27517,0.197555 0.71261,0.197555 z m 10.45986,1.086555 q -0.33867,0 -0.4445,-0.3175 l -0.14111,-0.698499 q -0.22578,0.254 -0.47272,0.458611 -0.24695,0.204611 -0.53622,0.352777 -0.28223,0.148167 -0.61384,0.225778 -0.32455,0.08467 -0.70555,0.08467 -0.59267,0 -1.08656,-0.246944 -0.49389,-0.246944 -0.85372,-0.71261 -0.35278,-0.472722 -0.55033,-1.164166 -0.1905,-0.691444 -0.1905,-1.580443 0,-0.804333 0.21872,-1.495777 0.21872,-0.691444 0.62795,-1.199444 0.40922,-0.507999 0.98072,-0.790221 0.5715,-0.289278 1.28411,-0.289278 0.60677,0 1.03716,0.197556 0.43039,0.190499 0.76906,0.515055 V 65.9034 h 1.74272 v 10.484547 z m -2.32128,-1.277054 q 0.54328,0 0.92428,-0.225778 0.381,-0.225778 0.71967,-0.642055 v -3.245553 q -0.29634,-0.359833 -0.64911,-0.508 -0.34573,-0.148166 -0.74789,-0.148166 -0.39511,0 -0.71967,0.148166 -0.3175,0.148167 -0.54327,0.451555 -0.21873,0.296334 -0.33867,0.762 -0.11995,0.458611 -0.11995,1.086555 0,0.634999 0.0988,1.079499 0.10584,0.437444 0.29634,0.719666 0.1905,0.275166 0.46566,0.402166 0.27517,0.119945 0.61383,0.119945 z"
         id="path18" />
      <path
         style="fill:#f4b400"
         d="m 153.68856,75.428392 q 0,-0.218722 0.0776,-0.416277 0.0847,-0.197556 0.22578,-0.338667 0.14817,-0.141111 0.34572,-0.225777 0.19756,-0.08467 0.42334,-0.08467 0.21872,0 0.41627,0.08467 0.19756,0.08467 0.33867,0.225777 0.14111,0.141111 0.22578,0.338667 0.0847,0.197555 0.0847,0.416277 0,0.225778 -0.0847,0.423333 -0.0847,0.1905 -0.22578,0.331611 -0.14111,0.141111 -0.33867,0.218722 -0.19755,0.08467 -0.41627,0.08467 -0.22578,0 -0.42334,-0.08467 -0.19755,-0.07761 -0.34572,-0.218722 -0.14111,-0.141111 -0.22578,-0.331611 -0.0776,-0.197555 -0.0776,-0.423333 z"
         id="path19" />
      <path
         style="fill:#003366"
         d="m 162.63148,70.680007 q -0.0776,0.09878 -0.15522,0.155222 -0.0706,0.05644 -0.21167,0.05644 -0.13405,0 -0.26105,-0.07761 -0.127,-0.08467 -0.30339,-0.183445 -0.17639,-0.105833 -0.42333,-0.183444 -0.23989,-0.08467 -0.59972,-0.08467 -0.45862,0 -0.80434,0.169333 -0.34572,0.162278 -0.57855,0.472722 -0.22578,0.310445 -0.33867,0.754944 -0.11289,0.437444 -0.11289,0.994833 0,0.578555 0.11995,1.03011 0.127,0.451555 0.35983,0.762 0.23283,0.303388 0.56444,0.465666 0.33161,0.155222 0.74789,0.155222 0.41628,0 0.67028,-0.09878 0.26105,-0.105833 0.43744,-0.225777 0.17639,-0.127 0.30339,-0.225778 0.13406,-0.105833 0.29633,-0.105833 0.21167,0 0.3175,0.162277 l 0.50095,0.635 q -0.28928,0.338666 -0.62795,0.571499 -0.33866,0.225778 -0.70555,0.366889 -0.35983,0.134056 -0.74789,0.1905 -0.38805,0.05644 -0.76905,0.05644 -0.67028,0 -1.26295,-0.246944 -0.59266,-0.254 -1.03716,-0.733777 -0.43745,-0.479778 -0.6985,-1.171221 -0.254,-0.6985 -0.254,-1.587499 0,-0.797277 0.22578,-1.47461 0.23283,-0.684389 0.67733,-1.178277 0.4445,-0.500944 1.10066,-0.783166 0.65617,-0.282222 1.50989,-0.282222 0.81139,0 1.41817,0.261055 0.61383,0.261056 1.10066,0.747889 z m 4.99885,-1.643943 q 0.81139,0 1.46755,0.261055 0.66323,0.261056 1.12889,0.740833 0.46567,0.479777 0.71967,1.171221 0.254,0.691444 0.254,1.545166 0,0.860777 -0.254,1.552221 -0.254,0.691444 -0.71967,1.178277 -0.46566,0.486833 -1.12889,0.747888 -0.65616,0.261055 -1.46755,0.261055 -0.81139,0 -1.47461,-0.261055 -0.66322,-0.261055 -1.13594,-0.747888 -0.46567,-0.486833 -0.72673,-1.178277 -0.254,-0.691444 -0.254,-1.552221 0,-0.853722 0.254,-1.545166 0.26106,-0.691444 0.72673,-1.171221 0.47272,-0.479777 1.13594,-0.740833 0.66322,-0.261055 1.47461,-0.261055 z m 0,6.117162 q 0.90311,0 1.3335,-0.606777 0.43744,-0.606778 0.43744,-1.777999 0,-1.171221 -0.43744,-1.785054 -0.43039,-0.613833 -1.3335,-0.613833 -0.91722,0 -1.35467,0.620888 -0.43744,0.613833 -0.43744,1.777999 0,1.164166 0.43744,1.777999 0.43745,0.606777 1.35467,0.606777 z m 5.19641,1.234721 v -7.238994 h 1.06539 q 0.33867,0 0.4445,0.317499 l 0.11289,0.536222 q 0.1905,-0.211666 0.39511,-0.388055 0.21167,-0.176389 0.4445,-0.303389 0.23989,-0.127 0.508,-0.197555 0.27516,-0.07761 0.59972,-0.07761 0.68439,0 1.12183,0.373944 0.4445,0.366889 0.66322,0.980721 0.16934,-0.359833 0.42334,-0.613832 0.254,-0.261056 0.55739,-0.423333 0.30338,-0.162278 0.64205,-0.239889 0.34572,-0.07761 0.69144,-0.07761 0.59973,0 1.06539,0.183444 0.46567,0.183444 0.78317,0.536222 0.3175,0.352777 0.47978,0.860777 0.16933,0.508 0.16933,1.164166 v 4.607274 h -1.74272 v -4.607274 q 0,-0.691444 -0.30339,-1.037166 -0.30339,-0.352778 -0.889,-0.352778 -0.26811,0 -0.50094,0.09172 -0.22578,0.09172 -0.40217,0.268111 -0.16933,0.169333 -0.26811,0.430388 -0.0988,0.261055 -0.0988,0.599722 v 4.607274 h -1.74978 v -4.607274 q 0,-0.726722 -0.29633,-1.058333 -0.28928,-0.331611 -0.86078,-0.331611 -0.37394,0 -0.70555,0.1905 -0.32456,0.183445 -0.60678,0.508 v 5.298718 z"
         id="path20" />
    </g>
  </g>
</svg>
